<?xml version="1.0" encoding="UTF-8"?>
<svg xmlns="http://www.w3.org/2000/svg" viewBox="0 0 378.30463 363.95606">
    <defs>
        <style>
        .c{fill:#eea243;}.d{fill:#8eb9e1;}.e{fill:#000;}
        @media (prefers-color-scheme: dark) {
            .e{fill:#FFF;}
        }
        </style>
    </defs>
    <g id="a">
        <ellipse class="e" cx="156.0848" cy="155.22875" rx="156.0848" ry="155.22875" />
        <ellipse class="d" cx="156.06461" cy="155.3943" rx="144.28988" ry="142.87255" />
        <ellipse class="e" cx="156.24184" cy="155.46015" rx="133.35398" ry="132.26657" />
        <ellipse class="d" cx="157.47874" cy="155.22781" rx="111.8722" ry="111.63046" />
        <polygon class="e"
            points="151.48853 104.05381 151.30075 209.02024 161.06507 209.02024 160.94479 104.0391 151.48853 104.05381" />
        <path class="e"
            d="M168.63389,136.00957l18.00868-2.42814c.21765-26.81014-47.27383-31.99488-56.25239-8.09359-7.22202,19.2253,.56703,34.41345,21.0443,37.63609,8.29624,1.01156,10.92672,3.64204,13.15251,4.45142,8.66612,2.08032,8.85175,20.49965-2.22591,21.04396-16.05833,2.94477-19.70752-5.74899-20.84139-16.79472l-16.59227,3.84455s1.21407,11.12896,4.45158,14.56882c7.32642,9.67901,19.19763,11.99247,32.57763,10.72397,8.7007-.80908,14.5687-2.63018,18.00856-6.47473,8.83118-7.91889,10.75656-28.11175,2.22523-36.82693-10.17877-11.34356-33.50622-8.31492-37.23121-17.19861-1.41608-4.24975-1.01139-11.12947,2.42847-13.75996s10.5491-4.73936,14.77117-2.63048c5.36818,2.68134,4.85627,5.66565,6.47503,11.93834Z" />
        <polygon class="e"
            points="153.72222 61.77105 161.19011 61.79302 161.18329 42.62734 153.73076 42.55897 153.72222 61.77105" />
        <polygon class="e"
            points="153.42548 270.526 160.89338 270.54797 160.88656 251.38229 153.43402 251.31392 153.42548 270.526" />
        <polygon class="e"
            points="79.57521 70.98511 74.19104 76.16011 87.51763 89.93418 92.92302 84.80322 79.57521 70.98511" />
        <polygon class="e"
            points="224.49312 221.6289 219.10895 226.8039 232.43554 240.57798 237.84093 235.44702 224.49312 221.6289" />
        <polygon class="e"
            points="250.70684 155.68482 250.67418 163.15267 269.83985 163.1733 269.91889 155.72087 250.70684 155.68482" />
        <polygon class="e"
            points="44.61666 155.70335 44.58399 163.1712 63.74966 163.19183 63.82871 155.7394 44.61666 155.70335" />
        <polygon class="e"
            points="221.75632 84.68794 227.1612 89.84131 240.34099 75.9267 234.97918 70.75022 221.75632 84.68794" />
        <polygon class="e"
            points="72.50672 234.72245 77.9116 239.87582 91.09139 225.96121 85.72958 220.78473 72.50672 234.72245" />
    </g>
    <g id="b">
        <path class="e"
            d="M377.86138,331.47697c.99731-6.73186,0-115.68831,0-115.68831,0,0-8.26182-32.52367-83.89332-33.04889s-86.89653,32.79957-86.89653,32.79957v113.94301s.94675,34.47239,87.20098,34.47239c80.23089,.24093,83.58886-32.47777,83.58886-32.47777Z" />
        <ellipse class="c" cx="292.39762" cy="222.00056" rx="74.45322" ry="27.78156" />
        <path class="c"
            d="M217.96719,238.49895s5.82601,10.7693,35.66226,16.77186c20.12623,4.2371,30.89552,3.70746,40.78209,3.88401s35.30917-1.58891,47.13774-6.1791c18.36077-5.29638,25.06951-12.53476,25.06951-12.53476l.17655,12.35821s-4.41365,9.71002-24.71642,15.88913-35.66226,6.35565-48.72665,6.35565-32.63692-1.68969-41.31173-3.70746c-31.65196-7.36229-34.07335-19.59659-34.07335-19.59659v-13.24094Z" />
        <path class="c"
            d="M217.75022,264.99808s5.82601,10.7693,35.66226,16.77186c20.12623,4.2371,30.89552,3.70746,40.78209,3.88401s35.30917-1.58891,47.13774-6.1791c18.36077-5.29638,25.06951-12.53476,25.06951-12.53476l.17655,12.35821s-4.41365,9.71002-24.71642,15.88913-35.66226,6.35565-48.72665,6.35565-32.63692-1.68969-41.31173-3.70746c-31.65196-7.36229-34.07335-19.59659-34.07335-19.59659v-13.24094Z" />
        <path class="c"
            d="M217.99429,289.89344s5.82601,10.7693,35.66226,16.77186c20.12623,4.2371,30.89552,3.70746,40.78209,3.88401s35.30917-1.58891,47.13774-6.1791c18.36077-5.29638,25.06951-12.53476,25.06951-12.53476l.17655,12.35821s-4.41365,9.71002-24.71642,15.88913-35.66226,6.35565-48.72665,6.35565-32.63692-1.68969-41.31173-3.70746c-31.65196-7.36229-34.07335-19.59659-34.07335-19.59659v-13.24094Z" />
        <path class="c"
            d="M217.75022,316.74137s5.82601,10.7693,35.66226,16.77186c20.12623,4.2371,30.89552,3.70746,40.78209,3.88401s35.30917-1.58891,47.13774-6.1791c18.36077-5.29638,25.06951-12.53476,25.06951-12.53476l.17655,12.35821s-4.41365,9.71002-24.71642,15.88913-35.66226,6.35565-48.72665,6.35565-32.63692-1.68969-41.31173-3.70746c-31.65196-7.36229-34.07335-19.59659-34.07335-19.59659v-13.24094Z" />
    </g>
</svg>